#!OML:ASF I:\Actors\actors\Patient Classification 2\Patient 1\Session 1\actor1.ASF
:FULLY-SPECIFIED
:DEGREES
720
root -1.20967 18.067 5.62075 -3.27655 -6.09205 -5.63455
lowerback 5.11318 0.674186 4.01333
upperback -0.93328 1.22022 1.64979
thorax -3.78793 0.535704 -0.647557
lowerneck -12.9569 -0.288932 1.6797
upperneck 21.8758 -1.03549 0.988861
head 8.98953 -0.245553 -0.0652462
rclavicle 1.71887e-014 -4.27387e-015
rhumerus -51.8336 -6.32058 -85.5578
rradius 60.289
rwrist -0.186093
rhand -9.69626 -26.8881
rfingers 7.12502
rthumb 16.2761 -56.225
lclavicle 1.71887e-014 -4.27387e-015
lhumerus -44.7715 1.129 90.128
lradius 40.9339
lwrist -1.60586
lhand -7.62604 -30.5932
lfingers 7.12502
lthumb 18.2686 -1.43111
rfemur 0 0 0
rtibia 0
rfoot 0 0
rtoes 0
lfemur 22.6592 -6.15104 -11.0746
ltibia -19.4329
lfoot -3.86829 22.3121
ltoes -9.25159
721
root -1.20863 18.066 5.617 -3.31343 -5.99113 -5.61835
lowerback 5.15103 0.681914 4.05824
upperback -0.905351 1.23384 1.63188
thorax -3.77851 0.541738 -0.692644
lowerneck -12.9856 -0.349478 1.583
upperneck 21.8214 -1.09227 0.967914
head 8.97598 -0.282768 -0.0626628
rclavicle -2.42269e-015 -2.88238e-014
rhumerus -51.6488 -5.75261 -85.8524
rradius 60.9674
rwrist -0.429338
rhand -9.73987 -26.8138
rfingers 7.12502
rthumb 16.2341 -56.1541
lclavicle -2.42269e-015 -2.88238e-014
lhumerus -44.6522 1.14767 90.1999
lradius 40.7905
lwrist -1.78033
lhand -7.69612 -30.7956
lfingers 7.12502
lthumb 18.2012 -1.62714
rfemur 0 0 0
rtibia 0
rfoot 0 0
rtoes 0
lfemur 22.6338 -6.03224 -11.0559
ltibia -19.4069
lfoot -3.78847 22.1093
ltoes -9.28728
722
root -1.20738 18.0657 5.61327 -3.34107 -5.84617 -5.61153
lowerback 5.21544 0.683101 4.13293
upperback -0.900694 1.24277 1.6037
thorax -3.80763 0.543738 -0.765166
lowerneck -13.0478 -0.435788 1.37611
upperneck 21.7981 -1.17113 0.99043
head 8.98016 -0.334239 -0.0294763
rclavicle -1.86174e-014 -7.85199e-015
rhumerus -51.5037 -5.31223 -86.0433
rradius 61.3763
rwrist -0.528138
rhand -9.71636 -26.6597
rfingers 7.12502
rthumb 16.2568 -55.9981
lclavicle -1.86174e-014 -7.85199e-015
lhumerus -44.5058 1.09469 90.2817
lradius 40.5946
lwrist -1.88657
lhand -7.82824 -30.8823
lfingers 7.12502
lthumb 18.0741 -1.70212
rfemur 0 0 0
rtibia 0
rfoot 0 0
rtoes 0
lfemur 22.6006 -6.06446 -11.0527
ltibia -19.3794
lfoot -3.78357 22.0264
ltoes -9.22739
723
root -1.20589 18.0666 5.61183 -3.32827 -5.70264 -5.60354
lowerback 5.22993 0.698339 4.20931
upperback -0.911271 1.26838 1.57711
thorax -3.82362 0.55406 -0.837691
lowerneck -13.1073 -0.523858 1.21454
upperneck 21.8124 -1.27086 1.04513
head 8.99714 -0.387897 0.00458374
rclavicle -3.50979e-015 -5.46658e-015
rhumerus -51.3601 -5.03513 -86.1099
rradius 61.5171
rwrist -0.494208
rhand -9.64677 -26.5159
rfingers 7.12502
rthumb 16.3238 -55.8489
lclavicle -3.50979e-015 -5.46658e-015
lhumerus -44.357 1.05568 90.356
lradius 40.3559
lwrist -2.01791
lhand -7.95304 -30.9873
lfingers 7.12502
lthumb 17.954 -1.79606
rfemur 0 0 0
rtibia 0
rfoot 0 0
rtoes 0
lfemur 22.534 -6.21154 -11.0707
ltibia -19.3508
lfoot -3.8523 22.0081
ltoes -8.84656
724
root -1.20418 18.068 5.61277 -3.28474 -5.56894 -5.60705
lowerback 5.15706 0.719853 4.28283
upperback -0.911053 1.29706 1.56227
thorax -3.77917 0.567366 -0.895257
lowerneck -13.1275 -0.596958 1.14382
upperneck 21.8231 -1.37546 1.12372
head 9.00565 -0.433968 0.0310795
rclavicle -7.57245e-015 -1.89839e-014
rhumerus -51.1865 -4.84392 -86.0915
rradius 61.4144
rwrist -0.38425
rhand -9.46344 -26.2435
rfingers 7.12502
rthumb 16.5003 -55.5619
lclavicle -7.57245e-015 -1.89839e-014
lhumerus -44.2404 1.15935 90.3634
lradius 40.1312
lwrist -2.29203
lhand -8.06057 -31.1852
lfingers 7.12502
lthumb 17.8506 -1.98443
rfemur 0 0 0
rtibia 0
rfoot 0 0
rtoes 0
lfemur 22.4369 -6.30205 -11.0646
ltibia -19.3066
lfoot -3.89509 21.9134
ltoes -8.53077
725
root -1.20286 18.069 5.61499 -3.24613 -5.45329 -5.59237
lowerback 5.06238 0.745133 4.33155
upperback -0.911748 1.32766 1.54362
thorax -3.72358 0.582373 -0.942627
lowerneck -13.116 -0.646021 1.07981
upperneck 21.8176 -1.44668 1.20064
head 9.00279 -0.464311 0.05986
rclavicle -1.00138e-014 -1.44119e-014
rhumerus -51.0174 -4.72309 -86.0305
rradius 61.0625
rwrist -0.238659
rhand -9.32747 -25.9609
rfingers 7.12502
rthumb 16.6312 -55.2684
lclavicle -1.00138e-014 -1.44119e-014
lhumerus -44.1481 1.2591 90.3579
lradius 39.9132
lwrist -2.52783
lhand -8.22202 -31.3217
lfingers 7.12502
lthumb 17.6952 -2.10686
rfemur 0 0 0
rtibia 0
rfoot 0 0
rtoes 0
lfemur 22.3528 -6.34339 -11.0756
ltibia -19.2584
lfoot -3.93778 21.818
ltoes -8.27326
726
root -1.2006 18.0685 5.61823 -3.22795 -5.33813 -5.57065
lowerback 5.00123 0.764708 4.38338
upperback -0.927848 1.35321 1.52026
thorax -3.70293 0.593912 -0.996788
lowerneck -13.09 -0.686841 1.00615
upperneck 21.8141 -1.4999 1.26033
head 8.99784 -0.488934 0.0865328
rclavicle 2.90723e-015 -2.46493e-014
rhumerus -50.8591 -4.66219 -85.9227
rradius 60.4604
rwrist -0.0408334
rhand -9.35484 -26.0228
rfingers 7.12502
rthumb 16.6048 -55.3324
lclavicle 2.90723e-015 -2.46493e-014
lhumerus -44.0962 1.28381 90.3785
lradius 39.7269
lwrist -2.6815
lhand -8.3954 -31.344
lfingers 7.12502
lthumb 17.5284 -2.11422
rfemur 0 0 0
rtibia 0
rfoot 0 0
rtoes 0
lfemur 22.2921 -6.38583 -11.1026
ltibia -19.2155
lfoot -3.9721 21.757
ltoes -8.14753
727
root -1.19749 18.0685 5.62197 -3.2023 -5.19989 -5.56743
lowerback 4.914 0.772599 4.43189
upperback -0.93803 1.36182 1.51638
thorax -3.66274 0.597788 -1.0271
lowerneck -13.0895 -0.732753 0.951853
upperneck 21.8329 -1.55545 1.27659
head 9.00481 -0.51739 0.0947769
rclavicle -8.94531e-015 -1.59028e-014
rhumerus -50.654 -4.65054 -85.7346
rradius 59.6118
rwrist 0.334387
rhand -9.34562 -26.2994
rfingers 7.12502
rthumb 16.6137 -55.6083
lclavicle -8.94531e-015 -1.59028e-014
lhumerus -44.0937 1.36917 90.3692
lradius 39.6141
lwrist -2.85595
lhand -8.41361 -31.3599
lfingers 7.12502
lthumb 17.5108 -2.12858
rfemur 0 0 0
rtibia 0
rfoot 0 0
rtoes 0
lfemur 22.2212 -6.42161 -11.1069
ltibia -19.1751
lfoot -3.94966 21.6839
ltoes -8.3662
728
root -1.19516 18.0712 5.62653 -3.14087 -5.05414 -5.53479
lowerback 4.76377 0.783865 4.4143
upperback -0.943735 1.36707 1.51968
thorax -3.58403 0.602342 -1.01169
lowerneck -13.1208 -0.776521 0.927776
upperneck 21.858 -1.60117 1.23176
head 9.01904 -0.54508 0.0781308
rclavicle -2.26118e-015 4.27387e-015
rhumerus -50.4103 -4.75732 -85.4631
rradius 58.5451
rwrist 0.899265
rhand -9.28523 -26.5251
rfingers 7.12502
rthumb 16.6719 -55.8291
lclavicle -2.26118e-015 4.27387e-015
lhumerus -44.0705 1.53686 90.3176
lradius 39.4495
lwrist -3.09546
lhand -8.36147 -31.5202
lfingers 7.12502
lthumb 17.561 -2.2933
rfemur 0 0 0
rtibia 0
rfoot 0 0
rtoes 0
lfemur 22.1178 -6.45881 -11.1348
ltibia -19.1537
lfoot -3.93755 21.5958
ltoes -8.3972
